<?xml version="1.0" standalone="no"?>
<!DOCTYPE svg PUBLIC "-//W3C//DTD SVG 20010904//EN"
	"http://www.w3.org/TR/2001/REC-SVG-20010904/DTD/svg10.dtd">
<svg version="1.0" xmlns="http://www.w3.org/2000/svg"
     width="512.000000pt" height="512.000000pt" viewBox="0 0 512.000000 512.000000"
     preserveAspectRatio="xMidYMid meet">
	<metadata>
		Created by potrace 1.14, written by Peter Selinger 2001-2017
	</metadata>
	<g transform="translate(0.000000,512.000000) scale(0.100000,-0.100000)"
	   fill="#000000" stroke="none">
		<path d="M2175 4996 c-71 -18 -127 -49 -191 -106 -30 -28 -202 -173 -382 -322
-180 -150 -511 -426 -737 -613 -225 -187 -438 -363 -472 -390 -35 -28 -68 -62
-74 -76 -8 -22 4 -128 65 -545 41 -286 80 -555 86 -600 l12 -81 -41 -63 c-55
-86 -54 -108 10 -140 21 -11 41 -25 45 -31 6 -11 50 -317 94 -664 24 -187 31
-213 68 -247 37 -35 41 -37 278 -123 115 -42 250 -91 299 -110 50 -18 133 -49
185 -68 52 -19 138 -51 190 -70 52 -20 176 -65 275 -102 98 -37 188 -71 200
-77 11 -6 117 -85 235 -176 299 -229 380 -282 433 -282 43 0 116 60 265 219
190 202 226 235 478 448 262 221 1114 949 1173 1002 41 38 43 41 39 88 -2 26
-16 104 -31 173 -40 192 -87 444 -87 469 0 13 4 20 11 16 22 -15 119 6 149 32
46 38 40 66 -36 167 -36 48 -91 127 -123 177 l-58 90 31 32 c17 18 62 65 99
106 l68 74 27 -21 c59 -47 174 -122 187 -122 8 0 21 8 30 17 28 28 14 90 -35
164 -86 127 -218 295 -273 346 -147 138 -236 111 -151 -47 21 -38 36 -71 33
-73 -24 -18 -108 -67 -116 -67 -5 0 -35 114 -67 253 -98 427 -115 490 -135
510 -10 10 -146 66 -302 123 -156 57 -313 115 -349 128 -79 30 -166 62 -560
206 -168 62 -313 116 -322 121 -10 5 -26 26 -37 47 -29 56 -114 135 -183 170
-100 51 -201 63 -303 38z m231 -47 c84 -32 164 -98 207 -172 29 -48 46 -66 70
-74 18 -6 167 -61 332 -123 165 -61 334 -124 375 -139 591 -216 803 -297 810
-311 9 -17 29 -123 95 -500 48 -279 48 -279 7 -303 l-34 -20 -73 23 c-64 20
-75 27 -79 49 -9 43 -44 259 -61 369 l-15 104 41 51 c39 49 41 55 35 101 -3
27 -7 50 -9 52 -3 3 -972 361 -1107 409 -36 13 -121 44 -189 69 -69 25 -128
46 -131 46 -3 0 -11 -29 -17 -64 -23 -134 -93 -237 -202 -294 -32 -18 -63 -38
-69 -45 -14 -16 4 -244 21 -264 12 -17 40 -16 232 4 l160 16 91 89 c49 48 93
88 96 88 9 0 299 -198 321 -220 17 -16 14 -22 -81 -141 -55 -68 -115 -141
-134 -161 l-33 -38 -70 45 c-84 55 -160 79 -215 70 -21 -4 -44 -12 -49 -19
-17 -21 -34 -346 -35 -666 -1 -314 12 -461 68 -803 28 -166 37 -145 -102 -230
-61 -38 -94 -53 -97 -45 -2 7 -33 306 -70 663 -36 358 -76 757 -90 888 -14
132 -22 243 -19 248 3 5 17 9 31 9 15 0 24 2 21 5 -4 4 -154 -5 -343 -21 -122
-10 -64 6 95 26 84 10 154 21 157 24 6 5 -17 191 -28 226 -6 20 -7 16 -8 -22
-1 -57 -14 -93 -36 -101 -30 -12 -420 -49 -466 -44 -34 3 -62 15 -106 45 -32
23 -62 42 -66 42 -4 0 -7 -47 -7 -105 l0 -105 107 0 c58 0 104 -2 102 -5 -3
-2 -48 -9 -100 -15 -144 -15 -309 -42 -309 -49 0 -3 52 -39 116 -80 l115 -73
104 71 c125 86 194 107 251 76 38 -20 51 -46 119 -229 61 -167 96 -291 141
-496 61 -284 85 -516 102 -978 l7 -193 165 112 c150 101 311 219 366 266 12
10 24 35 27 58 7 47 37 75 78 75 19 0 34 8 45 25 10 16 35 30 66 40 27 8 68
28 91 46 30 22 24 13 -20 -28 -51 -48 -63 -65 -63 -90 0 -43 -22 -63 -63 -57
-37 6 -40 4 -357 -265 -107 -91 -238 -201 -290 -245 -55 -46 -96 -88 -98 -100
-17 -131 -78 -206 -168 -206 -23 0 -25 -3 -19 -22 26 -83 28 -116 12 -160 -10
-25 -38 -68 -62 -97 -53 -63 -62 -89 -45 -144 18 -60 52 -105 114 -152 50 -37
130 -125 122 -133 -2 -2 -26 10 -53 27 -26 16 -122 57 -213 90 -91 33 -221 81
-290 106 -69 26 -154 57 -190 70 -336 119 -807 298 -816 310 -10 14 -25 89
-100 525 -19 113 -41 238 -49 278 l-13 74 45 19 c25 10 48 19 53 19 4 0 13
-28 19 -62 58 -307 235 -519 584 -702 76 -39 97 -46 145 -46 53 1 56 2 37 16
-11 8 -74 42 -140 76 -161 82 -247 140 -327 220 -123 122 -202 273 -234 445
-21 114 -20 113 -41 113 -10 0 -65 -21 -122 -45 -110 -48 -121 -51 -121 -34 0
16 414 648 422 643 3 -2 0 -28 -8 -57 -79 -296 -89 -581 -27 -768 42 -128 144
-271 247 -349 56 -42 407 -240 426 -240 7 0 26 12 44 27 33 28 142 83 164 83
33 0 1 26 -44 36 l-49 11 48 8 c45 7 95 4 212 -11 40 -5 54 -3 64 10 8 9 12
18 10 20 -2 2 -80 32 -174 66 -242 89 -317 128 -473 248 -112 86 -211 204
-267 318 -58 117 -109 317 -124 484 -14 143 -18 170 -30 170 -9 0 -264 -349
-324 -443 -20 -31 -40 -57 -45 -57 -4 0 -20 71 -35 158 -15 86 -50 288 -78
447 -27 160 -59 339 -69 399 -11 61 -18 118 -15 127 7 22 95 97 1245 1054 184
153 363 305 397 337 126 119 278 153 429 97z m771 -655 c8 -22 -18 -37 -36
-20 -7 8 -10 19 -7 25 10 16 36 13 43 -5z m421 -176 c16 -16 15 -61 -3 -105
-18 -43 -30 -53 -67 -53 -59 0 -76 94 -27 146 25 26 77 32 97 12z m1013 -515
c38 -35 47 -59 12 -32 -15 11 -16 11 -5 -1 6 -8 12 -21 12 -29 0 -20 62 -100
79 -101 9 0 11 8 6 27 l-6 27 21 -19 c22 -20 110 -128 125 -153 6 -11 3 -12
-13 -3 -26 14 -32 14 -32 0 0 -15 103 -138 116 -138 6 -1 18 -17 27 -36 15
-32 15 -36 2 -41 -22 -9 -69 13 -97 44 -12 15 -15 20 -5 13 46 -36 -16 51 -98
136 -79 82 -125 141 -120 155 7 17 -54 109 -75 116 -11 4 -10 -2 4 -22 10 -15
16 -29 14 -32 -6 -5 -58 78 -65 105 -7 28 13 44 40 29 10 -5 36 -26 58 -45z
m-1028 -27 c45 -24 217 -112 382 -196 165 -84 311 -162 324 -172 44 -33 79
-24 154 43 37 33 67 65 67 70 0 22 -52 6 -116 -36 -74 -48 -94 -54 -94 -30 0
15 157 125 178 125 6 0 41 -35 78 -77 38 -43 77 -88 89 -101 l20 -24 -104 -96
-103 -97 136 -183 c78 -104 136 -190 134 -200 -2 -10 -14 -18 -31 -20 -21 -3
-70 23 -205 106 -97 60 -187 115 -199 121 -20 10 -70 -7 -365 -125 -189 -75
-347 -141 -353 -146 -6 -6 -2 -22 12 -47 20 -35 21 -40 7 -52 -12 -10 -23 -9
-59 9 -31 15 -54 19 -79 15 -50 -8 -86 17 -86 60 0 25 -11 47 -45 86 -49 57
-53 72 -30 91 12 10 21 10 41 1 36 -16 44 -14 44 13 0 24 16 36 50 36 12 0 23
-12 31 -35 8 -20 18 -34 24 -33 19 5 345 359 345 375 0 5 -94 100 -209 210
-121 118 -215 217 -226 238 -23 49 -13 100 22 119 32 16 49 11 166 -48z m252
14 c3 -5 -1 -10 -9 -10 -9 0 -16 5 -16 10 0 6 4 10 9 10 6 0 13 -4 16 -10z
m847 -237 c32 -37 58 -74 58 -83 0 -9 -14 -29 -30 -45 -26 -25 -32 -27 -44
-15 -42 46 -156 180 -156 184 0 3 16 16 37 30 44 30 51 27 135 -71z m-1495
-123 c31 16 58 28 61 25 2 -2 0 -30 -5 -62 l-9 -58 45 -47 c25 -26 42 -50 39
-53 -3 -3 -32 -10 -65 -16 l-59 -11 -31 -61 -30 -62 -31 62 -32 62 -57 6 c-32
4 -62 10 -66 12 -5 3 12 27 38 53 l47 47 -11 58 c-6 32 -11 62 -11 67 0 5 27
-5 61 -22 l60 -31 56 31z m1351 -600 c40 -17 26 -32 -25 -24 l-46 7 7 -34 c41
-206 114 -665 106 -678 -10 -19 -12 -21 -440 -372 -184 -151 -462 -379 -618
-507 -156 -128 -279 -225 -273 -215 5 10 69 90 141 178 144 175 170 218 171
293 2 85 20 108 229 288 310 268 399 367 476 529 52 112 75 208 81 350 6 135
-3 180 -38 180 l-24 0 -1 -135 c-1 -164 -25 -275 -85 -390 -68 -132 -156 -228
-415 -455 -262 -230 -284 -257 -284 -350 0 -60 -24 -114 -75 -175 -21 -25
-119 -153 -218 -285 -220 -293 -283 -372 -363 -452 -60 -61 -90 -76 -99 -50
-6 15 -128 1062 -153 1305 l-8 84 85 76 c47 42 98 87 112 100 l26 23 37 -148
c21 -81 42 -153 48 -160 15 -18 56 -16 119 6 113 39 175 78 289 186 36 34 128
108 205 165 287 211 431 387 466 567 6 35 17 67 23 72 6 5 64 38 129 74 l118
65 137 -55 c75 -29 147 -58 160 -63z m-1054 -523 c8 -12 7 -21 -6 -33 -22 -22
-48 -11 -48 20 0 37 34 45 54 13z"/>
		<path d="M2150 4916 c-48 -16 -121 -68 -154 -107 -78 -93 -102 -222 -64 -349
14 -46 66 -128 89 -140 15 -8 13 0 -11 44 -51 99 -49 227 6 343 45 93 147 162
273 184 34 6 61 15 61 19 0 21 -147 26 -200 6z"/>
		<path d="M2467 4770 c4 -16 0 -27 -12 -36 -16 -12 -16 -14 3 -39 12 -14 26
-51 32 -81 21 -100 -24 -191 -117 -238 -74 -37 -234 -7 -311 60 -50 42 -57 43
-36 2 45 -91 124 -139 235 -146 105 -6 163 14 222 77 101 108 103 308 4 400
l-26 23 6 -22z"/>
		<path d="M2230 4751 c-92 -28 -142 -86 -147 -169 -5 -70 22 -122 84 -166 101
-71 249 -10 284 118 20 73 -26 161 -105 201 -52 26 -73 29 -116 16z"/>
		<path d="M1717 4482 l-129 -107 6 -77 6 -77 -470 -406 c-272 -235 -470 -413
-470 -423 0 -9 14 -93 32 -185 l31 -168 -48 -49 -48 -49 17 -107 18 -106 -37
-38 -37 -38 7 -66 c4 -36 11 -68 15 -71 7 -4 75 76 238 279 45 57 82 83 82 59
0 -5 18 -114 39 -243 59 -349 108 -473 245 -618 158 -167 339 -272 676 -389
106 -37 119 -40 161 -30 34 8 50 18 62 39 23 41 76 60 138 52 34 -5 58 -2 75
6 l24 13 0 226 c0 427 -69 859 -202 1271 -45 138 -137 335 -169 363 -13 10
-38 17 -64 17 -46 0 -58 -7 -168 -104 l-68 -59 -159 108 c-94 64 -157 113
-153 119 13 21 247 311 256 317 5 4 55 -20 109 -53 l100 -61 92 7 c166 13 286
32 303 48 14 15 13 28 -6 144 -22 125 -32 154 -55 154 -6 0 -39 13 -74 30
-117 55 -204 175 -225 310 -6 38 -14 70 -17 70 -3 -1 -63 -49 -133 -108z m118
-392 c0 -7 -6 -15 -12 -17 -8 -3 -13 4 -13 17 0 13 5 20 13 18 6 -3 12 -11 12
-18z m-701 -559 c8 -12 -21 -34 -72 -56 -48 -21 -50 -40 -4 -41 20 -1 39 -11
56 -30 14 -16 26 -32 26 -35 1 -20 -104 -102 -125 -97 -9 2 -26 20 -38 41 -18
32 -19 41 -8 59 8 13 9 24 3 30 -13 13 -72 -21 -65 -38 5 -15 -27 -34 -57 -34
-34 0 -19 22 33 50 28 15 45 30 42 38 -6 16 76 76 85 62 9 -15 38 -2 45 19 9
28 67 52 79 32z m91 -242 l59 -51 81 7 c44 4 170 20 280 36 110 16 201 29 202
29 1 0 7 -9 13 -21 28 -52 -19 -92 -225 -188 -60 -29 -120 -59 -133 -67 l-23
-15 71 -137 c40 -75 79 -144 87 -152 13 -13 16 -13 27 3 18 24 35 21 46 -8 6
-15 17 -25 30 -25 29 0 25 -25 -7 -45 -16 -10 -41 -31 -56 -47 -21 -23 -33
-28 -50 -23 -12 4 -39 7 -59 6 -41 -2 -51 16 -23 39 8 7 15 16 15 20 0 6 -309
264 -365 304 -8 6 -66 -1 -158 -19 -120 -23 -148 -26 -161 -16 -24 20 -7 41
99 115 52 38 98 72 101 77 3 5 -9 35 -26 67 -28 52 -30 58 -14 67 10 6 40 29
68 52 28 23 53 42 56 42 3 1 32 -22 65 -50z m570 -849 c12 -13 25 -17 45 -14
58 12 118 -46 104 -101 -3 -12 -1 -26 5 -29 6 -4 11 -14 11 -22 0 -8 30 -66
66 -127 36 -62 75 -128 86 -147 l20 -35 -21 25 c-12 14 -51 67 -88 118 -36 50
-72 92 -79 92 -18 0 -74 49 -74 65 0 8 -9 17 -20 20 -33 10 -50 34 -50 70 0
19 -9 50 -21 69 -23 39 -13 48 16 16z m-345 -160 c0 -19 40 -50 65 -50 30 0
31 -5 6 -36 -15 -19 -18 -31 -11 -54 7 -25 6 -30 -8 -30 -9 0 -24 5 -32 10
-10 6 -25 3 -47 -10 l-33 -19 0 39 c0 31 -5 43 -25 56 -29 19 -25 30 14 39 21
4 33 15 40 36 9 27 31 41 31 19z"/>
		<path d="M3145 3834 c-115 -18 -118 -19 -106 -42 5 -10 13 -50 16 -90 4 -40
11 -75 16 -77 4 -3 46 42 93 101 80 99 97 125 79 123 -5 -1 -48 -7 -98 -15z"/>
		<path d="M756 1472 c-9 -14 12 -35 28 -29 23 9 20 37 -3 37 -11 0 -22 -4 -25
-8z"/>
		<path d="M777 1404 c-14 -15 -6 -34 14 -34 14 0 19 5 17 17 -3 18 -20 27 -31
17z"/>
		<path d="M791 1330 c-17 -10 -7 -40 13 -40 7 0 16 6 19 14 8 19 -15 37 -32 26z"/>
		<path d="M3720 2869 c-179 -199 -213 -239 -209 -244 7 -6 428 309 429 320 0
12 -58 85 -68 85 -4 0 -72 -73 -152 -161z"/>
		<path d="M4463 1934 c-8 -21 13 -42 28 -27 13 13 5 43 -11 43 -6 0 -13 -7 -17
-16z"/>
		<path d="M4403 1884 c-7 -20 17 -37 34 -23 15 13 6 39 -13 39 -8 0 -17 -7 -21
-16z"/>
		<path d="M4347 1844 c-16 -16 -6 -35 16 -32 12 2 22 10 22 18 0 16 -26 25 -38
14z"/>
		<path d="M1331 4811 c-49 -46 -41 -115 19 -146 45 -23 75 -19 104 16 36 43 35
91 -3 130 -39 38 -79 38 -120 0z"/>
		<path d="M4107 4424 c-12 -12 -8 -42 6 -47 21 -8 39 8 35 29 -3 19 -29 30 -41
18z"/>
		<path d="M4652 4095 c-26 -19 -72 -105 -72 -134 0 -25 51 -41 127 -41 44 0 58
5 88 31 32 28 36 37 33 72 -4 51 -35 75 -103 83 -37 4 -56 1 -73 -11z"/>
		<path d="M720 4084 c0 -17 22 -14 28 4 2 7 -3 12 -12 12 -9 0 -16 -7 -16 -16z"/>
		<path d="M4444 3846 c-10 -26 4 -48 28 -44 17 2 23 10 23 28 0 18 -6 26 -23
28 -13 2 -25 -3 -28 -12z"/>
		<path d="M187 3832 c-10 -10 -17 -35 -17 -56 0 -30 7 -45 34 -72 39 -39 58
-42 103 -15 58 36 56 95 -4 136 -44 30 -93 32 -116 7z"/>
		<path d="M134 3605 c-4 -9 0 -23 8 -31 20 -20 50 -7 46 20 -4 26 -45 35 -54
11z"/>
	</g>
</svg>
