<?xml version="1.0" standalone="no"?>
<!DOCTYPE svg PUBLIC "-//W3C//DTD SVG 20010904//EN"
 "http://www.w3.org/TR/2001/REC-SVG-20010904/DTD/svg10.dtd">
<svg version="1.0" xmlns="http://www.w3.org/2000/svg"
 width="512.000000pt" height="512.000000pt" viewBox="0 0 512.000000 512.000000"
 preserveAspectRatio="xMidYMid meet">
<metadata>
Created by potrace 1.11, written by Peter Selinger 2001-2013
</metadata>
<g transform="translate(0.000000,512.000000) scale(0.100000,-0.100000)"
fill="#000000" stroke="none">
<path d="M2167 4991 c-66 -22 -124 -58 -205 -130 -48 -42 -123 -105 -166 -141
-43 -36 -124 -103 -181 -150 -56 -47 -122 -101 -146 -121 -24 -20 -119 -99
-210 -175 -92 -76 -183 -152 -204 -169 -21 -16 -54 -44 -74 -61 -65 -56 -356
-297 -487 -404 -192 -157 -178 -138 -170 -228 3 -42 13 -117 22 -167 9 -49 26
-169 39 -265 23 -166 60 -428 89 -625 l13 -90 -45 -70 c-41 -65 -44 -71 -31
-94 8 -14 32 -34 54 -45 l40 -21 13 -95 c7 -52 25 -189 41 -305 17 -115 35
-259 41 -320 15 -136 35 -185 89 -219 22 -14 43 -26 46 -26 6 0 401 -143 580
-210 61 -23 139 -52 175 -65 36 -13 121 -44 190 -70 69 -26 154 -57 190 -70
188 -68 221 -84 312 -154 352 -269 478 -359 539 -381 30 -11 40 -10 69 5 56
29 121 90 284 265 84 91 186 192 227 225 41 33 155 130 254 215 99 86 371 319
605 519 234 200 451 385 482 412 70 60 75 81 49 190 -11 46 -25 113 -31 149
-6 36 -27 145 -46 242 -18 97 -34 179 -34 182 0 4 27 6 60 6 87 0 140 33 140
85 0 9 -26 51 -58 93 -32 42 -89 123 -126 179 l-68 102 98 106 c54 58 103 105
107 105 5 0 46 -28 90 -61 107 -81 121 -87 147 -64 46 41 22 95 -135 305 -138
183 -143 189 -218 246 -42 32 -68 44 -92 44 -53 0 -55 -28 -6 -123 22 -45 40
-81 38 -82 -50 -32 -129 -76 -132 -73 -4 4 -38 145 -95 398 -15 69 -37 161
-48 205 -11 44 -23 96 -26 116 -4 20 -14 43 -24 52 -9 8 -75 36 -147 62 -124
45 -186 67 -408 149 -53 20 -141 52 -195 71 -53 20 -132 49 -174 65 -42 17
-80 30 -83 30 -4 0 -34 11 -68 24 -34 14 -125 47 -202 75 -288 104 -268 94
-295 142 -36 65 -113 135 -194 176 -65 33 -79 36 -171 39 -55 2 -112 0 -128
-5z m210 -26 c28 -8 71 -27 96 -41 52 -29 139 -119 167 -173 14 -29 29 -40 67
-53 26 -9 98 -35 158 -58 61 -22 139 -52 175 -65 36 -13 115 -42 175 -65 61
-23 146 -54 190 -70 44 -16 130 -47 190 -70 161 -60 429 -159 510 -187 104
-37 108 -43 139 -234 14 -90 42 -254 61 -364 19 -110 35 -209 35 -221 0 -15
-12 -26 -41 -39 -41 -19 -42 -19 -112 6 l-71 24 -13 70 c-7 39 -25 148 -39
244 -28 190 -28 193 26 254 29 33 31 40 24 83 -6 40 -11 48 -38 58 -75 30
-180 69 -296 110 -69 25 -181 66 -250 91 -69 26 -154 57 -190 70 -36 13 -114
42 -175 65 -60 23 -146 54 -190 70 -44 16 -125 45 -180 65 -55 19 -104 37
-109 38 -5 1 -14 -30 -21 -70 -7 -39 -23 -93 -36 -119 -32 -64 -114 -143 -183
-177 l-56 -28 0 -52 c1 -89 17 -199 32 -213 12 -12 36 -12 168 1 230 23 212
16 314 115 l91 88 75 -52 c41 -29 117 -80 168 -115 50 -34 92 -68 92 -75 0 -6
-18 -34 -40 -61 -160 -198 -216 -264 -226 -265 -6 0 -22 8 -35 19 -13 10 -55
35 -92 55 -56 29 -79 36 -127 36 -38 0 -64 -5 -73 -15 -21 -20 -32 -252 -32
-665 0 -357 6 -431 56 -750 16 -102 29 -190 29 -196 0 -6 -47 -40 -106 -77
-91 -58 -124 -75 -124 -64 0 1 -13 133 -29 292 -17 160 -39 385 -51 500 -11
116 -32 311 -45 435 -13 124 -32 306 -41 405 -9 99 -18 181 -19 183 -1 1 -84
-5 -185 -13 -100 -9 -185 -13 -188 -10 -13 13 19 20 170 37 89 10 165 21 169
25 8 9 -13 179 -24 189 -4 4 -7 -11 -7 -34 0 -59 -21 -66 -235 -86 -289 -27
-293 -27 -361 19 -33 22 -62 42 -66 43 -5 2 -8 -39 -8 -92 l0 -96 99 0 c55 0
102 -4 106 -9 6 -11 6 -11 -220 -42 -185 -25 -201 -30 -159 -52 16 -8 67 -40
113 -70 l83 -55 82 58 c118 83 153 100 211 100 84 0 104 -24 171 -207 43 -117
109 -324 119 -373 3 -19 20 -91 35 -160 60 -259 100 -656 100 -994 0 -145 2
-167 15 -162 8 3 65 40 127 83 62 42 133 91 158 107 70 47 202 146 233 174 17
16 27 36 27 53 0 15 3 35 6 44 8 19 55 45 83 45 11 0 33 14 49 30 18 17 41 30
55 30 14 0 51 20 87 48 105 80 109 78 15 -11 -67 -64 -89 -91 -87 -107 2 -12
-4 -32 -12 -46 -13 -19 -25 -24 -59 -24 -46 0 -73 -21 -447 -340 -74 -63 -172
-146 -217 -184 -70 -58 -83 -74 -83 -99 0 -89 -64 -174 -140 -184 -39 -6 -41
-8 -35 -32 12 -50 17 -120 11 -145 -3 -13 -31 -57 -61 -97 -46 -61 -55 -79
-55 -114 0 -62 37 -122 114 -185 63 -52 150 -149 141 -159 -3 -2 -20 8 -40 23
-19 15 -57 37 -83 48 -47 21 -84 35 -517 193 -126 46 -286 105 -355 130 -69
26 -154 57 -190 70 -36 13 -121 44 -190 70 -69 26 -139 51 -156 56 -57 17 -64
35 -99 241 -37 219 -66 380 -96 551 -12 65 -20 119 -18 121 2 3 28 14 56 25
l53 21 4 -23 c52 -254 116 -381 268 -528 69 -67 111 -97 236 -171 125 -74 181
-98 232 -98 43 1 44 1 25 16 -11 9 -69 41 -130 71 -60 31 -141 76 -180 100
-88 57 -229 199 -276 279 -51 85 -97 210 -110 296 -6 40 -15 80 -19 88 -10 21
-39 15 -142 -31 -147 -65 -149 -57 -35 118 46 71 113 173 149 228 36 55 87
134 114 175 61 94 71 112 45 80 -31 -36 -253 -347 -285 -397 -14 -24 -30 -43
-35 -43 -10 0 -45 185 -112 590 -10 63 -28 160 -39 215 -26 130 -50 287 -50
324 0 25 19 45 141 148 78 65 176 147 219 183 42 36 96 81 120 100 24 19 131
109 239 200 175 147 457 382 551 459 132 109 305 256 365 311 70 64 140 106
199 121 54 12 161 10 213 -6z m802 -659 c15 -18 3 -46 -20 -46 -22 0 -34 22
-25 45 7 19 30 19 45 1z m426 -193 c29 -28 -6 -135 -50 -155 -34 -15 -76 6
-85 42 -9 37 6 93 31 113 27 22 82 22 104 0z m992 -494 c52 -45 73 -68 73 -82
0 -5 -8 -3 -17 4 -9 8 -14 9 -10 2 4 -6 3 -13 -2 -15 -6 -1 6 -22 25 -46 38
-45 60 -48 44 -7 -14 37 3 30 41 -17 19 -23 46 -56 60 -73 54 -63 81 -118 41
-82 -10 10 -24 17 -31 17 -15 0 73 -114 104 -134 30 -20 52 -73 36 -89 -16
-16 -87 22 -137 75 -36 38 -31 44 9 10 9 -8 19 -13 21 -11 3 2 -22 34 -55 69
-33 36 -58 57 -55 47 7 -21 -39 -87 -59 -87 -7 0 -46 37 -86 83 -111 123 -106
110 -57 142 34 22 45 25 60 16 25 -15 28 -14 28 12 0 25 -48 102 -58 93 -3 -4
0 -12 6 -18 7 -7 12 -18 12 -26 0 -17 -41 32 -64 75 -17 33 -21 65 -9 76 14
14 33 6 80 -34z m-978 -58 c86 -43 199 -101 251 -128 52 -28 160 -83 240 -124
80 -40 160 -84 179 -96 55 -37 75 -31 155 47 87 86 70 93 -51 21 -71 -43 -83
-48 -94 -34 -11 12 -9 18 11 34 45 35 156 99 171 99 24 0 181 -188 174 -208
-3 -9 -34 -42 -68 -72 -89 -79 -123 -119 -111 -135 5 -7 64 -86 132 -176 67
-90 122 -171 122 -181 0 -9 -9 -22 -20 -28 -27 -14 -16 -20 -336 178 -47 28
-93 52 -104 52 -20 0 -667 -256 -687 -272 -10 -8 -8 -19 8 -49 11 -22 17 -44
14 -49 -10 -16 -45 -11 -80 10 -24 15 -39 18 -61 11 -16 -4 -39 -5 -51 0 -28
10 -52 46 -46 68 3 12 -13 40 -42 76 -38 46 -45 62 -40 82 5 23 9 25 46 19 35
-6 40 -4 48 17 9 24 29 37 56 37 7 0 20 -19 30 -42 l17 -42 56 59 c97 102 250
269 273 299 l22 28 -109 101 c-181 169 -300 290 -323 327 -11 19 -21 49 -21
66 0 38 34 84 62 84 11 0 91 -35 177 -79z m219 21 c2 -7 -3 -12 -12 -12 -9 0
-16 7 -16 16 0 17 22 14 28 -4z m-763 -349 l54 -27 61 29 c33 16 62 27 64 24
2 -2 -1 -32 -7 -67 l-10 -63 47 -48 c27 -27 44 -51 39 -54 -4 -3 -34 -8 -66
-12 l-58 -7 -26 -54 c-14 -30 -29 -57 -34 -59 -4 -3 -23 21 -42 52 -18 32 -40
59 -48 60 -8 1 -35 5 -61 8 -27 3 -48 10 -48 15 0 5 20 29 44 54 l43 45 -12
65 c-7 36 -9 66 -4 66 5 0 33 -12 64 -27z m1309 -539 c78 -30 151 -59 164 -64
37 -16 25 -30 -28 -30 -35 0 -48 -4 -45 -12 3 -7 18 -92 34 -188 17 -96 42
-242 56 -324 15 -82 24 -159 21 -170 -3 -12 -47 -56 -98 -97 -51 -41 -221
-180 -378 -309 -157 -129 -319 -261 -360 -294 -41 -34 -131 -108 -201 -166
-70 -58 -144 -118 -165 -135 -21 -16 -63 -51 -93 -77 -31 -26 -57 -45 -59 -43
-3 2 58 81 134 175 170 209 185 233 191 313 2 34 9 74 15 89 6 17 102 108 233
223 245 214 335 305 401 407 48 75 94 178 112 250 19 77 31 221 25 303 -6 73
-7 76 -29 73 -24 -3 -24 -4 -28 -148 -4 -169 -26 -264 -85 -375 -78 -145 -179
-253 -482 -514 -108 -92 -183 -164 -192 -184 -8 -17 -17 -62 -20 -99 -7 -77
-19 -104 -80 -179 -24 -30 -120 -155 -212 -279 -319 -426 -440 -558 -470 -509
-4 5 -16 83 -26 172 -45 383 -89 767 -134 1172 l-6 50 112 99 c61 54 114 94
119 90 4 -5 20 -63 35 -129 37 -161 47 -185 80 -185 35 0 170 53 230 91 28 17
73 52 100 78 70 67 164 143 291 236 125 92 258 220 327 317 50 70 77 133 99
231 14 65 -8 47 203 163 33 19 62 34 64 34 2 0 67 -25 145 -56z m-899 -599 c0
-25 -4 -30 -24 -30 -32 0 -49 28 -31 50 7 9 23 15 34 13 16 -2 21 -10 21 -33z"/>
<path d="M2185 4921 c-96 -25 -182 -96 -231 -191 -26 -50 -29 -65 -29 -155 0
-89 3 -106 26 -150 15 -28 36 -61 48 -75 20 -24 20 -22 -3 30 -13 30 -26 75
-30 100 -13 88 33 236 93 303 43 47 154 104 223 113 52 7 66 24 19 24 -16 0
-41 2 -57 4 -16 3 -42 1 -59 -3z"/>
<path d="M2463 4740 c-11 -16 -9 -27 13 -67 35 -66 32 -160 -9 -222 -65 -98
-173 -125 -301 -77 -39 15 -85 38 -103 52 -37 28 -42 22 -14 -19 50 -76 126
-111 241 -111 91 0 155 27 200 84 75 95 88 252 27 341 -27 40 -39 44 -54 19z"/>
<path d="M2200 4734 c-73 -32 -110 -86 -110 -161 0 -60 24 -108 73 -147 34
-27 47 -31 102 -31 56 0 68 4 102 31 88 71 105 162 47 245 -49 71 -137 96
-214 63z"/>
<path d="M1723 4478 l-132 -110 6 -77 5 -76 -193 -167 c-273 -234 -667 -575
-712 -615 l-39 -34 17 -73 c8 -40 24 -122 34 -181 l19 -108 -48 -49 -47 -48
13 -83 c20 -121 19 -132 -22 -176 -31 -35 -34 -44 -29 -78 11 -71 16 -84 25
-78 10 6 149 176 228 279 44 57 76 71 86 39 9 -33 25 -128 47 -273 26 -180 73
-335 130 -437 51 -89 169 -214 273 -287 77 -54 270 -155 355 -185 31 -11 100
-36 155 -55 83 -31 106 -35 147 -30 42 6 52 11 65 36 22 42 74 62 141 53 42
-5 60 -3 80 10 l26 17 -6 262 c-10 435 -63 763 -192 1191 -37 122 -55 166
-122 302 -39 80 -50 94 -79 103 -55 18 -89 4 -178 -76 -46 -41 -90 -74 -97
-74 -8 0 -70 39 -139 86 -69 48 -137 94 -152 103 -16 9 -28 22 -28 28 0 7 42
64 93 126 50 62 108 134 127 159 19 26 41 48 48 48 7 0 54 -26 105 -57 90 -57
94 -58 157 -56 127 5 313 31 328 47 14 14 14 28 -2 138 -10 68 -23 129 -28
135 -6 7 -38 23 -72 35 -47 17 -76 37 -127 87 -79 79 -118 154 -127 244 l-7
65 -132 -110z m115 -391 c-2 -11 -9 -22 -15 -25 -16 -4 -27 22 -19 43 8 22 38
6 34 -18z m-712 -582 c-18 -27 -22 -29 -68 -39 -41 -9 -37 -36 5 -30 28 5 35
1 55 -31 13 -20 21 -43 18 -50 -7 -19 -105 -95 -121 -95 -8 0 -26 21 -41 46
-23 39 -25 49 -15 66 15 25 9 32 -19 23 -12 -4 -19 -9 -16 -12 12 -12 -16 -42
-50 -53 -71 -24 -69 25 3 55 18 8 32 19 31 26 -4 18 94 90 115 83 11 -3 17 0
17 9 0 18 81 49 94 36 5 -5 2 -19 -8 -34z m99 -209 l64 -55 58 6 c32 2 119 14
193 24 286 41 311 44 321 28 16 -26 9 -60 -19 -89 -16 -15 -101 -63 -190 -106
-89 -43 -162 -83 -162 -88 0 -16 151 -296 160 -296 5 0 12 9 15 20 9 28 33 25
47 -5 6 -14 19 -25 30 -25 33 0 22 -43 -17 -64 -19 -11 -35 -23 -35 -27 0 -4
-7 -15 -16 -24 -13 -13 -28 -14 -78 -9 -33 3 -65 10 -69 14 -4 3 1 17 11 31
l19 24 -126 101 c-69 56 -152 123 -184 150 l-59 48 -86 -13 c-48 -6 -113 -19
-145 -27 -61 -15 -97 -8 -97 21 0 14 72 76 164 143 25 18 46 38 46 45 0 7 -11
30 -25 52 -29 48 -31 72 -7 79 9 3 40 26 67 51 28 24 51 44 53 45 2 0 32 -24
67 -54z m895 -421 c0 -8 -7 -15 -15 -15 -8 0 -15 7 -15 15 0 8 7 15 15 15 8 0
15 -7 15 -15z m-1002 -247 c-6 -18 -28 -21 -28 -4 0 9 7 16 16 16 9 0 14 -5
12 -12z m731 -196 c38 2 47 -2 73 -31 23 -26 29 -40 25 -65 -2 -17 -1 -38 4
-46 4 -8 52 -91 105 -183 53 -92 95 -170 92 -172 -2 -2 -45 54 -96 124 -69 97
-101 134 -129 148 -21 10 -44 30 -51 46 -7 15 -18 27 -24 27 -24 0 -48 34 -48
67 0 19 -13 57 -30 86 -39 69 -38 81 3 35 29 -34 37 -38 76 -36z m-389 -162
c10 -25 18 -30 45 -30 43 0 48 -8 24 -41 -15 -22 -18 -37 -13 -64 7 -38 0 -42
-40 -24 -20 10 -30 9 -50 -5 -39 -25 -49 -21 -42 16 5 26 1 37 -21 60 -23 24
-25 30 -13 38 8 5 23 10 33 10 11 0 24 14 33 35 18 43 28 44 44 5z"/>
<path d="M3140 3829 c-105 -17 -97 -9 -87 -86 17 -129 13 -125 59 -73 48 54
128 156 128 164 0 8 -31 6 -100 -5z"/>
<path d="M880 2805 c-9 -10 -9 -15 -1 -15 15 0 14 -35 -4 -93 -40 -133 -59
-280 -59 -457 0 -149 3 -186 22 -253 30 -108 92 -214 183 -311 78 -82 135
-120 421 -275 81 -45 93 -45 131 -4 15 18 56 38 141 73 39 15 19 30 -41 30
-23 0 -44 4 -47 9 -14 22 157 29 245 10 53 -12 113 2 93 20 -5 5 -54 25 -109
45 -290 106 -404 163 -530 264 -56 44 -167 157 -200 202 -76 105 -140 261
-174 428 -8 38 -41 310 -41 340 0 8 -19 0 -30 -13z"/>
<path d="M767 1474 c-13 -13 -7 -24 14 -24 11 0 19 5 17 12 -5 14 -22 21 -31
12z"/>
<path d="M780 1400 c-12 -7 -12 -12 -2 -22 9 -9 15 -9 24 0 16 16 -2 34 -22
22z"/>
<path d="M790 1315 c0 -8 7 -15 15 -15 8 0 15 7 15 15 0 8 -7 15 -15 15 -8 0
-15 -7 -15 -15z"/>
<path d="M4669 3375 c59 -67 68 -75 44 -40 -12 17 -36 44 -54 60 -25 22 -22
17 10 -20z"/>
<path d="M3747 2893 c-63 -71 -139 -155 -170 -188 -30 -33 -54 -62 -51 -64 2
-2 27 14 56 36 29 21 122 90 206 152 83 62 152 115 152 117 0 8 -63 74 -70 74
-4 0 -60 -57 -123 -127z"/>
<path d="M4460 1925 c0 -8 9 -15 20 -15 11 0 20 7 20 15 0 8 -9 15 -20 15 -11
0 -20 -7 -20 -15z"/>
<path d="M4407 1894 c-14 -15 -6 -34 14 -34 14 0 19 5 17 17 -3 18 -20 27 -31
17z"/>
<path d="M4344 1839 c-9 -15 11 -33 30 -26 9 4 13 13 10 22 -7 17 -30 20 -40
4z"/>
<path d="M1344 4811 c-71 -43 -43 -133 48 -156 20 -5 31 1 57 31 27 30 32 42
27 68 -7 37 -48 76 -79 76 -12 0 -36 -9 -53 -19z"/>
<path d="M4111 4416 c-14 -17 -7 -36 14 -36 22 0 29 20 13 36 -13 13 -16 13
-27 0z"/>
<path d="M4636 4069 c-43 -51 -63 -104 -46 -124 17 -20 133 -30 170 -15 37 15
70 59 70 92 0 29 -33 61 -79 77 -58 19 -77 14 -115 -30z"/>
<path d="M4451 3851 c-16 -10 -6 -51 13 -51 8 0 19 7 26 15 10 12 10 18 0 30
-14 17 -20 18 -39 6z"/>
<path d="M199 3831 c-36 -29 -32 -86 9 -122 38 -34 56 -36 100 -9 26 16 32 26
32 55 0 31 -5 39 -47 65 -55 35 -63 36 -94 11z"/>
<path d="M140 3590 c0 -16 5 -21 23 -18 12 2 22 10 22 18 0 8 -10 16 -22 18
-18 3 -23 -2 -23 -18z"/>
</g>
</svg>
